HIERARCHY
ROOT Hips
{
	OFFSET 0.00 0.00 0.00
	CHANNELS 6 Xposition Yposition Zposition Yrotation Xrotation Zrotation
	JOINT LHipJoint
	{
		OFFSET	0.0000	0.0000	0.0000
		CHANNELS 3 Yrotation Xrotation Zrotation
		JOINT LeftUpLeg
		{
			OFFSET	1.0138	-0.0809	-0.0827
			CHANNELS 3 Yrotation Xrotation Zrotation
			JOINT LeftLeg
			{
				OFFSET	0.4110	-3.9095	0.3245
				CHANNELS 3 Yrotation Xrotation Zrotation
				JOINT LeftFoot
				{
					OFFSET	0.3810	-4.0555	-0.1470
					CHANNELS 3 Yrotation Xrotation Zrotation
					JOINT LeftToeBase
					{
						OFFSET	0.1396	-0.4462	1.3079
						CHANNELS 3 Yrotation Xrotation Zrotation
						End Site
						{
							OFFSET 0.0161 -0.0248 0.1809
						}
					}
				}
			}
		}
	}
	JOINT LowerBack
	{
		OFFSET	0.0000	0.7977	-0.3873
		CHANNELS 3 Yrotation Xrotation Zrotation
		JOINT Spine
		{
			OFFSET	0.0000	1.4131	0.1715
			CHANNELS 3 Yrotation Xrotation Zrotation
			JOINT Spine1
			{
				OFFSET	0.0000	1.4392	-0.1032
				CHANNELS 3 Yrotation Xrotation Zrotation
				JOINT LeftShoulder
				{
					OFFSET	0.2274	1.0382	0.4032
					CHANNELS 3 Yrotation Xrotation Zrotation
					JOINT LeftArm
					{
						OFFSET	1.4730	-0.2267	-0.0231
						CHANNELS 3 Yrotation Xrotation Zrotation
						JOINT LeftForeArm
						{
							OFFSET	1.6131	-1.8059	0.0081
							CHANNELS 3 Yrotation Xrotation Zrotation
							JOINT LeftHand
							{
								OFFSET	1.2197	-1.2423	1.6317
								CHANNELS 3 Yrotation Xrotation Zrotation
								JOINT LThumb
								{
									OFFSET	0.0109	-0.0753	0.4387
									CHANNELS 3 Yrotation Xrotation Zrotation
									End Site
									{
										OFFSET -0.2090 -0.0868 0.2097
									}
								}
								JOINT LeftFingerBase
								{
									OFFSET	0.1071	-0.1567	0.2607
									CHANNELS 3 Yrotation Xrotation Zrotation
									JOINT LeftHandFinger1
									{
										OFFSET	0.1706	-0.2492	0.6830
										CHANNELS 3 Yrotation Xrotation Zrotation
										End Site
										{
											OFFSET 0.0335 -0.1507 0.2071
										}
									}
								}
							}
						}
					}
				}
				JOINT Neck
				{
					OFFSET	0.0000	1.7498	0.2381
					CHANNELS 3 Yrotation Xrotation Zrotation
					JOINT Neck1
					{
						OFFSET	0.0000	0.5043	0.1959
						CHANNELS 3 Yrotation Xrotation Zrotation
						JOINT Head
						{
							OFFSET	0.0000	0.5044	0.1959
							CHANNELS 3 Yrotation Xrotation Zrotation
							End Site
							{
								OFFSET 0.0000 1.4798 -0.0693
							}
						}
					}
				}
				JOINT RightShoulder
				{
					OFFSET	-0.2274	1.0382	0.4032
					CHANNELS 3 Yrotation Xrotation Zrotation
					JOINT RightArm
					{
						OFFSET	-1.4730	-0.2267	-0.0231
						CHANNELS 3 Yrotation Xrotation Zrotation
						JOINT RightForeArm
						{
							OFFSET	-1.6131	-1.8059	0.0081
							CHANNELS 3 Yrotation Xrotation Zrotation
							JOINT RightHand
							{
								OFFSET	-1.2197	-1.2423	1.6317
								CHANNELS 3 Yrotation Xrotation Zrotation
								JOINT RThumb
								{
									OFFSET	-0.0109	-0.0753	0.4387
									CHANNELS 3 Yrotation Xrotation Zrotation
									End Site
									{
										OFFSET 0.2090 -0.0868 0.2097
									}
								}
								JOINT RightFingerBase
								{
									OFFSET	-0.1071	-0.1567	0.2607
									CHANNELS 3 Yrotation Xrotation Zrotation
									JOINT RightHandFinger1
									{
										OFFSET	-0.1706	-0.2492	0.6830
										CHANNELS 3 Yrotation Xrotation Zrotation
										End Site
										{
											OFFSET -0.0335 -0.1507 0.2071
										}
									}
								}
							}
						}
					}
				}
			}
		}
	}
	JOINT RHipJoint
	{
		OFFSET	0.0000	0.0000	0.0000
		CHANNELS 3 Yrotation Xrotation Zrotation
		JOINT RightUpLeg
		{
			OFFSET	-1.0138	-0.0809	-0.0827
			CHANNELS 3 Yrotation Xrotation Zrotation
			JOINT RightLeg
			{
				OFFSET	-0.4110	-3.9095	0.3245
				CHANNELS 3 Yrotation Xrotation Zrotation
				JOINT RightFoot
				{
					OFFSET	-0.3810	-4.0555	-0.1470
					CHANNELS 3 Yrotation Xrotation Zrotation
					JOINT RightToeBase
					{
						OFFSET	-0.1396	-0.4462	1.3079
						CHANNELS 3 Yrotation Xrotation Zrotation
						End Site
						{
							OFFSET -0.0161 -0.0248 0.1809
						}
					}
				}
			}
		}
	}
}
MOTION
Frames: 15
Frame Time: 0.0333333
0.2474 8.2700 -0.2043 -27.2830 -8.6510 -1.2246 0.0000 -0.0000 0.0000 31.3826 -3.8850 1.2832 14.4592 32.0348 11.0694 8.1904 -21.9924 -6.5514 -0.0000 -0.0000 -0.0000 0.0000 -0.0000 0.0000 -4.8040 6.0570 0.1045 -9.6418 12.0834 -0.4480 0.0338 0.7727 -0.2680 -81.5899 11.8649 -7.6717 9.6158 11.7472 -1.0815 40.8109 -19.9165 -24.7416 17.3262 -9.0886 6.0012 3.7308 13.5857 -2.0807 -2.8386 -7.7073 0.2962 -7.1344 -3.6672 1.3384 -7.1344 -3.6672 1.3384 -26.9850 -2.4388 1.6556 1.9780 1.2194 0.9905 28.5045 1.7448 16.3640 -5.6511 7.4588 1.6645 -24.8355 11.2904 0.7669 28.9376 -33.7737 -82.3016 -3.9961 13.3168 1.8592 -2.1664 -14.2735 -4.1384 0.0000 -0.0000 0.0000 -18.1567 -10.5902 6.8002 6.7903 34.3972 -5.2843 7.9357 -13.9829 -2.4681 0.0000 -0.0004 0.0000 
0.2104 8.2885 -0.1673 -24.1191 -8.7896 -1.0796 0.0000 -0.0000 0.0000 29.0873 -3.2330 0.9981 14.2382 31.1987 11.0333 7.4179 -21.4287 -6.3454 0.0000 -0.0000 -0.0000 0.0000 -0.0000 0.0000 -4.7466 6.0121 -0.0373 -9.5443 11.9855 -0.7004 0.3873 0.7464 -0.2186 -81.1483 12.1322 -7.4697 10.0227 12.1785 -1.0052 41.0110 -19.7070 -25.5145 17.2242 -8.7255 5.7128 3.0553 14.2797 -2.6518 -2.8386 -7.7073 0.2962 -7.0946 -3.7769 1.5450 -7.0946 -3.7769 1.5450 -26.6018 -2.3603 1.7260 1.9937 1.2575 1.0567 28.5900 1.3286 15.6472 -6.3437 8.2176 1.5840 -24.3012 11.4927 0.3862 28.0028 -33.7772 -81.7225 -3.9028 13.4147 1.9379 -2.1664 -14.2735 -4.1385 0.0000 -0.0000 0.0000 -19.4978 -9.4580 6.0548 6.7794 33.9882 -5.1745 6.4431 -14.7678 -2.1535 0.0000 -0.1189 -0.0000 
0.1763 8.3054 -0.1328 -21.2114 -8.9473 -0.9350 0.0000 -0.0000 0.0000 27.3399 -2.6565 0.7290 14.0594 30.3525 11.1729 6.3348 -20.8618 -6.1484 0.0000 -0.0000 -0.0000 0.0000 -0.0000 0.0000 -4.6522 5.9846 -0.1940 -9.3739 11.9215 -0.9823 0.7421 0.7203 -0.2103 -80.7052 12.3202 -7.3370 10.3399 12.5136 -0.9436 40.7587 -19.3165 -26.0883 17.2418 -8.1945 5.4801 -0.8468 17.9878 -5.9947 -2.8386 -7.7073 0.2962 -7.0337 -3.8959 1.7117 -7.0337 -3.8959 1.7117 -26.1921 -2.3241 1.8573 2.0028 1.2887 1.1114 28.7387 0.9564 15.0167 -6.9608 8.8908 1.5046 -23.9026 12.1180 0.3536 26.9780 -33.7766 -81.0042 -3.8233 13.4980 2.0050 -2.1664 -14.2735 -4.1385 0.0000 -0.0000 0.0000 -21.0341 -8.3697 5.4480 6.7037 33.5344 -5.3050 5.2694 -15.4317 -1.8153 -0.0000 -0.3339 0.0000 
0.1446 8.3200 -0.1014 -18.6606 -9.0634 -0.7694 0.0000 -0.0000 0.0000 26.1118 -2.1924 0.5147 13.9093 29.5598 11.3151 5.0498 -20.3339 -5.9278 0.0000 -0.0000 0.0000 0.0000 -0.0000 0.0000 -4.4994 5.9649 -0.3524 -9.0855 11.8735 -1.2678 1.1179 0.6982 -0.2599 -80.3014 12.4601 -7.2486 10.5975 12.7848 -0.8922 39.9786 -18.7765 -26.3748 17.4062 -7.4660 5.3260 -7.1414 22.9850 -11.5135 -2.8386 -7.7073 0.2962 -6.9564 -4.0514 1.8380 -6.9565 -4.0513 1.8380 -25.7679 -2.2954 2.0179 1.9852 1.3071 1.1491 28.9609 0.6411 14.4893 -7.4476 9.4195 1.4368 -23.5254 13.1284 0.5973 25.8659 -33.7688 -80.1522 -3.7588 13.5652 2.0594 -2.1664 -14.2735 -4.1385 0.0000 -0.0000 0.0000 -22.6254 -7.4283 5.0338 6.5582 33.0992 -5.7395 4.3282 -15.9992 -1.4138 -0.0000 -0.5381 -0.0000 
0.1153 8.3313 -0.0727 -16.4808 -9.1056 -0.5735 0.0000 -0.0000 0.0000 25.1712 -1.8433 0.3462 13.7752 28.8836 11.3403 3.8241 -19.8782 -5.7014 -0.0000 -0.0001 0.0000 0.0000 -0.0000 0.0000 -4.2779 5.9459 -0.5234 -8.6593 11.8273 -1.5779 1.4748 0.6819 -0.3298 -79.8899 12.5516 -7.1949 10.8383 13.0376 -0.8431 38.8101 -18.2138 -26.3613 17.6477 -6.6108 5.2139 -14.1921 27.3489 -17.8294 -3.1397 -7.3369 0.0578 -6.8751 -4.2446 1.9640 -6.8751 -4.2446 1.9640 -25.3250 -2.2814 2.1818 1.9264 1.3164 1.1808 29.2630 0.3709 14.0956 -7.7860 9.7858 1.3872 -23.0647 14.2979 1.0788 24.6695 -33.7501 -79.1718 -3.7030 13.6234 2.1065 -2.1664 -14.2735 -4.1385 0.0000 -0.0000 0.0000 -24.1054 -6.6934 4.7739 6.3811 32.7434 -6.3579 3.5374 -16.5057 -0.9721 0.0000 -0.7163 -0.0000 
0.0890 8.3400 -0.0465 -14.6129 -9.0959 -0.3431 0.0000 -0.0000 0.0000 24.3639 -1.5576 0.1814 13.6554 28.2992 11.2706 2.7625 -19.4813 -5.4931 0.0000 -0.0000 -0.0000 0.0000 -0.0000 0.0000 -3.9920 5.9242 -0.7288 -8.1066 11.7761 -1.9471 1.7418 0.6702 -0.3586 -79.3809 12.5689 -7.1786 11.1158 13.3281 -0.7852 37.4586 -17.7801 -26.0724 17.9143 -5.6918 5.1189 -19.4599 29.8905 -22.6137 -4.8949 -5.2341 -1.3460 -6.8030 -4.4521 2.1381 -6.8030 -4.4521 2.1381 -24.8571 -2.3260 2.3358 1.8260 1.3251 1.2240 29.6305 0.1203 13.8595 -7.9895 10.0055 1.3562 -22.4716 15.3070 1.7767 23.3917 -33.7165 -78.0685 -3.6482 13.6804 2.1528 -2.1664 -14.2735 -4.1385 0.0000 -0.0000 0.0000 -25.2657 -6.1775 4.4183 6.2888 32.5168 -6.6292 2.7888 -16.9816 -0.6798 -0.0000 -0.6684 0.0000 
0.0658 8.3476 -0.0224 -12.9681 -9.0664 -0.0880 0.0000 -0.0000 0.0000 23.6103 -1.2828 0.0072 13.5413 27.7499 11.1322 1.8442 -19.1125 -5.2964 0.0000 0.0000 0.0000 0.0000 -0.0000 0.0000 -3.6605 5.8982 -0.9707 -7.4651 11.7165 -2.3827 1.8670 0.6612 -0.3058 -78.7116 12.4800 -7.2148 11.4844 13.7125 -0.7062 36.0502 -17.5776 -25.5291 18.2339 -4.6929 5.0680 -20.4549 30.3090 -23.5223 -7.7627 -2.0045 -3.6862 -6.7458 -4.6398 2.3810 -6.7458 -4.6398 2.3810 -24.3641 -2.4772 2.4767 1.6976 1.3403 1.2896 30.0279 -0.1277 13.7837 -8.0858 10.1094 1.3413 -21.7813 15.9107 2.6288 22.0358 -33.6640 -76.8483 -3.5945 13.7361 2.1982 -2.1664 -14.2735 -4.1384 0.0000 -0.0000 0.0000 -26.0883 -5.7769 4.0106 6.2705 32.3553 -6.6651 1.9424 -17.4270 -0.4452 0.0000 -0.6188 -0.0000 
0.0450 8.3549 0.0001 -11.4643 -9.0336 0.1522 0.0000 -0.0000 0.0000 22.8728 -1.0228 -0.1255 13.4173 27.2367 10.9109 1.0116 -18.7677 -5.0879 0.0000 -0.0000 -0.0000 0.0000 -0.0000 0.0000 -3.3115 5.8645 -1.2263 -6.7894 11.6435 -2.8464 1.8575 0.6545 -0.1812 -77.8910 12.2670 -7.3329 11.9803 14.2269 -0.5961 34.5941 -17.6167 -24.7515 18.6610 -3.5673 5.1065 -20.4276 30.2978 -23.4974 -11.2001 1.5365 -6.5561 -6.6954 -4.7824 2.6661 -6.6955 -4.7824 2.6661 -23.8484 -2.7506 2.6069 1.5620 1.3630 1.3735 30.4196 -0.3650 13.8485 -8.1025 10.1274 1.3387 -21.0940 16.0581 3.5076 20.6053 -33.5882 -75.5172 -3.5417 13.7908 2.2428 -2.1664 -14.2735 -4.1385 0.0000 -0.0000 0.0000 -26.6918 -5.3851 3.6642 6.2300 32.1657 -6.7170 1.0218 -17.8211 -0.1679 -0.0000 -0.5524 -0.0000 
0.0255 8.3625 0.0217 -10.0485 -9.0127 0.3308 0.0000 -0.0000 0.0000 22.2324 -0.8030 -0.1628 13.0911 26.8138 10.5620 0.3147 -18.4622 -4.8529 0.0000 -0.0000 0.0000 0.0000 -0.0000 0.0000 -2.9747 5.8182 -1.4599 -6.1354 11.5487 -3.2654 1.7836 0.6505 -0.0424 -76.9946 11.9364 -7.5641 12.6041 14.8694 -0.4514 33.0527 -17.8242 -23.7958 19.2092 -2.3117 5.2531 -20.3654 30.2721 -23.4405 -14.5643 4.6671 -9.4214 -6.6296 -4.8763 2.9274 -6.6296 -4.8763 2.9274 -23.3028 -3.1123 2.7362 1.4371 1.3869 1.4581 30.7958 -0.5595 14.0187 -8.0615 10.0832 1.3451 -20.5204 15.8788 4.2676 19.1041 -33.4844 -74.0817 -3.4900 13.8443 2.2866 -2.1664 -14.2735 -4.1384 0.0000 -0.0000 0.0000 -27.1396 -4.9723 3.2580 5.6842 31.8352 -6.7867 0.5787 -18.1178 0.0095 0.0000 -0.4800 -0.0000 
0.0071 8.3701 0.0428 -8.7106 -9.0199 0.4613 0.0000 -0.0000 0.0000 21.8416 -0.6115 -0.1364 11.8858 26.6141 9.8677 0.2696 -18.2377 -4.5870 0.0000 -0.0000 0.0000 0.0000 -0.0000 0.0000 -2.6728 5.7555 -1.6330 -5.5447 11.4253 -3.5647 1.7458 0.6482 0.0340 -76.1220 11.5157 -7.9214 13.3188 15.5992 -0.2773 31.4299 -18.0865 -22.7784 19.8697 -0.9510 5.5112 -20.2696 30.2325 -23.3531 -17.0703 6.7938 -11.5862 -6.5181 -4.9388 3.0863 -6.5181 -4.9389 3.0863 -22.7055 -3.4933 2.8878 1.3312 1.4020 1.5209 31.1818 -0.6722 14.2527 -7.9827 9.9982 1.3573 -20.1363 15.5618 4.8263 17.5365 -33.3482 -72.5487 -3.4391 13.8969 2.3296 -2.1664 -14.2735 -4.1385 0.0000 -0.0000 0.0000 -27.3456 -4.5236 2.7550 4.5935 31.3820 -6.8312 0.5805 -18.3401 0.0814 0.0000 -0.4057 0.0000 
-0.0098 8.3779 0.0643 -7.4625 -9.0465 0.5991 0.0000 -0.0000 0.0000 21.7101 -0.4010 -0.1207 10.5764 26.3785 9.2212 0.2295 -18.0014 -4.3353 -0.0000 -0.0000 0.0000 0.0000 -0.0000 0.0000 -2.4149 5.6770 -1.7223 -5.0336 11.2741 -3.6970 1.8253 0.6452 -0.0086 -75.3537 11.0422 -8.3890 14.0667 16.3553 -0.0857 29.7955 -18.2961 -21.8527 20.7284 0.5813 5.9564 -20.1419 30.1794 -23.2364 -17.8939 7.4559 -12.3026 -6.3351 -4.9966 3.0850 -6.3351 -4.9965 3.0850 -22.0288 -3.8235 3.0982 1.2415 1.4002 1.5458 31.6202 -0.6803 14.5105 -7.8876 9.8955 1.3718 -19.9664 15.2321 5.2136 15.9071 -33.1751 -70.9253 -3.3891 13.9484 2.3719 -2.1664 -14.2735 -4.1385 0.0000 -0.0000 0.0000 -27.3445 -4.0516 2.2206 3.4195 30.9037 -6.8094 0.5838 -18.5380 0.1422 -0.0000 -0.3358 -0.0000 
-0.0252 8.3858 0.0862 -6.3203 -9.0673 0.7911 0.0000 -0.0000 0.0000 21.6535 -0.1339 -0.1560 9.3759 26.0481 8.6156 0.1950 -17.7359 -4.1040 -0.0000 -0.0000 0.0000 0.0000 -0.0000 0.0000 -2.1944 5.5880 -1.7269 -4.5892 11.1045 -3.6622 2.0461 0.6412 -0.1814 -74.7305 10.5553 -8.9271 14.7974 17.0863 0.1108 28.2369 -18.3756 -21.1427 22.0047 2.4796 6.7737 -19.9838 30.1132 -23.0920 -17.8453 7.4173 -12.2603 -6.0710 -5.0722 2.9098 -6.0710 -5.0722 2.9098 -21.2573 -4.0617 3.4052 1.1588 1.3798 1.5298 32.1358 -0.5964 14.7618 -7.7985 9.7992 1.3853 -19.9860 14.9115 5.5543 14.2210 -32.9607 -69.2193 -3.3399 13.9990 2.4136 -2.1664 -14.2735 -4.1385 0.0000 -0.0000 0.0000 -27.3573 -3.6353 1.6562 2.3827 30.4709 -6.7305 0.5905 -18.7328 0.1858 -0.0000 -0.2794 -0.0000 
-0.0388 8.3933 0.1083 -5.2977 -9.0853 1.0234 0.0000 -0.0000 0.0000 21.4779 0.1877 -0.1951 8.4355 25.6583 7.9979 0.1613 -17.4685 -3.8762 0.0000 -0.0000 -0.0000 0.0000 -0.0000 0.0000 -1.9932 5.4968 -1.6685 -4.1775 10.9319 -3.5054 2.3692 0.6375 -0.4455 -74.2577 10.0942 -9.4845 15.4884 17.7702 0.3048 26.7944 -18.2786 -20.6805 23.7752 4.7740 8.0437 -19.7969 30.0343 -22.9213 -17.7710 7.3582 -12.1956 -5.7389 -5.1774 2.5989 -5.7389 -5.1774 2.5989 -20.4003 -4.2074 3.8238 1.0732 1.3455 1.4849 32.7098 -0.4722 14.9907 -7.7353 9.7309 1.3947 -20.1245 14.5669 5.9941 12.4838 -32.7009 -67.4385 -3.2916 14.0487 2.4545 -2.1664 -14.2735 -4.1385 0.0000 -0.0000 0.0000 -27.5990 -3.3011 1.1050 1.6943 30.1292 -6.6165 0.6004 -18.9307 0.2078 0.0000 -0.2425 -0.0000 
-0.0511 8.3995 0.1297 -4.4009 -9.1086 1.2307 0.0000 -0.0000 0.0000 21.1401 0.5063 -0.1597 7.7479 25.3049 7.3420 0.1256 -17.2485 -3.6408 0.0000 0.0000 0.0000 0.0000 -0.0000 0.0000 -1.7893 5.4111 -1.5829 -3.7578 10.7703 -3.2993 2.7157 0.6357 -0.7303 -73.9159 9.6951 -10.0114 16.1452 18.4135 0.4966 25.4456 -17.9875 -20.3971 25.6290 7.0142 9.4422 -19.5827 29.9431 -22.7258 -17.6573 7.2675 -12.0966 -5.3718 -5.3121 2.2292 -5.3718 -5.3121 2.2292 -19.4907 -4.2918 4.3262 0.9787 1.3065 1.4318 33.2834 -0.3826 15.1969 -7.7144 9.7084 1.3978 -20.2715 14.1797 6.6119 10.7012 -32.3918 -65.5914 -3.2440 14.0975 2.4948 -2.1664 -14.2735 -4.1385 0.0000 -0.0000 0.0000 -28.0488 -3.0123 0.6264 1.3296 29.8604 -6.4884 0.6114 -19.1202 0.2122 0.0000 -0.2087 -0.0000 
-0.0626 8.4044 0.1506 -3.6087 -9.1028 1.3567 0.0000 -0.0000 0.0000 20.7634 0.7287 -0.0311 7.1633 25.0519 6.6827 0.0903 -17.0987 -3.4105 0.0000 -0.0000 0.0000 0.0000 -0.0000 0.0000 -1.5650 5.3352 -1.5088 -3.2983 10.6276 -3.1192 3.0062 0.6350 -0.9633 -73.6668 9.3863 -10.4717 16.7840 19.0326 0.6898 24.1463 -17.5169 -20.1735 26.9538 8.6024 10.4505 -19.3428 29.8400 -22.5069 -17.5063 7.1465 -11.9652 -5.0111 -5.4682 1.8903 -5.0111 -5.4682 1.8903 -18.5703 -4.3584 4.8373 0.8747 1.2724 1.3920 33.7924 -0.3953 15.3893 -7.7496 9.7465 1.3926 -20.2982 13.7748 7.3694 8.8795 -32.0298 -63.6862 -3.1971 14.1455 2.5346 -2.1664 -14.2735 -4.1385 0.0000 -0.0000 0.0000 -28.5135 -2.7328 0.2619 1.0779 29.5989 -6.3456 0.6226 -19.2842 0.2028 -0.0000 -0.1625 0.0000 
